# xmcd
#
# Track frame offsets: 
#        150
#        18620
#        34300
#        55147
#        75525
#        100812
#        120177
#        135205
#        149470
#        164852
#
# Disc length: 2461 seconds
#
# Revision: 6
# Processed by: cddbd v1.5.2PL0 Copyright (c) Steve Scherf et al.
# Submitted via: ExactAudioCopy v1.0b1
#
DISCID=80099b0a
DTITLE=Phoebe Snow - Best Of Phoebe Snow
DYEAR=1982
DGENRE=Jazz
TTITLE0=Two-Fisted Love
TTITLE1=All Over
TTITLE2=Poetry Man
TTITLE3=Teach Me Tonight
TTITLE4=Don't Let Me Down
TTITLE5=Shakey Ground
TTITLE6=Love Makes A Woman
TTITLE7=Never Letting Go
TTITLE8=Every Night
TTITLE9=Harpo's Blues
EXTD=ID3G:   0
EXTT0=
EXTT1=
EXTT2=
EXTT3=
EXTT4=
EXTT5=
EXTT6=
EXTT7=
EXTT8=
EXTT9=
PLAYORDER=
